<svg xmlns="http://www.w3.org/2000/svg" viewBox="0 0 68 68"><defs><style>.cls-1{fill:#f2f2f2;}</style></defs><g id="レイヤー_2" data-name="レイヤー 2"><g id="レイヤー_1-2" data-name="レイヤー 1"><path class="cls-1" d="M34,0A34,34,0,1,0,68,34,34,34,0,0,0,34,0Zm1.18,55.7H29V49.35h6.23Zm4.67-21.8c-4.61,3.77-5.45,5.51-5.45,11.91H29.73V44c0-6.23,1.14-8.51,6.05-12.82,4.19-3.65,4.79-5.15,4.79-8,0-3.77-2.81-6.16-7.37-6.16-5,0-7.78,2.57-8.08,7.72H19.61c.42-8.2,5.33-12.52,13.59-12.52,7.85,0,13,4.38,13,10.84C46.2,27.25,45.12,29.46,39.85,33.9Z"/></g></g></svg>