<svg xmlns="http://www.w3.org/2000/svg" viewBox="0 0 2560.17 1274.02"><defs><style>.cls-1{fill:#8581ea;}.cls-11,.cls-13,.cls-14,.cls-16,.cls-17,.cls-19,.cls-2,.cls-21,.cls-23,.cls-3,.cls-4,.cls-7,.cls-9{fill:#fff;}.cls-2,.cls-3,.cls-4,.cls-5{stroke:#ff77b6;}.cls-10,.cls-12,.cls-14,.cls-15,.cls-16,.cls-18,.cls-2,.cls-20,.cls-22,.cls-3,.cls-5,.cls-6,.cls-7,.cls-8{stroke-linejoin:round;}.cls-10,.cls-12,.cls-14,.cls-15,.cls-16,.cls-18,.cls-2,.cls-20,.cls-5,.cls-6{stroke-width:40px;}.cls-3,.cls-7{stroke-width:36.2px;}.cls-11,.cls-13,.cls-17,.cls-19,.cls-21,.cls-23,.cls-4,.cls-9{stroke-width:14.92px;}.cls-10,.cls-12,.cls-15,.cls-18,.cls-20,.cls-22,.cls-5,.cls-6,.cls-8{fill:none;}.cls-6,.cls-7,.cls-8,.cls-9{stroke:#1fb574;}.cls-22,.cls-8{stroke-width:40.28px;}.cls-10,.cls-11{stroke:#8581ea;}.cls-12,.cls-13,.cls-14{stroke:#efd873;}.cls-15,.cls-16,.cls-17{stroke:#ffa55a;}.cls-18,.cls-19{stroke:#598fd9;}.cls-20,.cls-21{stroke:#f57e7e;}.cls-22,.cls-23{stroke:#5accd1;}</style></defs><g id="レイヤー_2" data-name="レイヤー 2"><g id="レイヤー_1-2" data-name="レイヤー 1"><polygon class="cls-1" points="0.1 58.64 86.46 149.93 115.73 122.24 0.1 0 0.1 58.64"/><path id="パス_259" data-name="パス 259" class="cls-2" d="M679.35,57.93l555.53-3.33"/><line class="cls-3" x1="679.35" y1="94.18" x2="679.35" y2="52.06"/><path id="パス_259-2" data-name="パス 259" class="cls-2" d="M1259.75,55.4l293.92-3.34"/><circle class="cls-4" cx="1234.88" cy="57.13" r="32.33"/><circle class="cls-4" cx="679.85" cy="54.6" r="32.33"/><path id="パス_259-3" data-name="パス 259" class="cls-5" d="M2234.69,293.79,1947.1,58.08l-378.84.07"/><path id="パス_259-4" data-name="パス 259" class="cls-2" d="M1360.37,299.66l1199.73-3.34"/><circle class="cls-4" cx="2234.69" cy="296.32" r="32.33"/><circle class="cls-4" cx="1915.89" cy="298.86" r="32.33"/><circle class="cls-4" cx="1360.86" cy="296.32" r="32.33"/><path id="パス_259-5" data-name="パス 259" class="cls-6" d="M679.35,136.31,463.72,330,.24,329.87"/><line class="cls-7" x1="679.35" y1="136.31" x2="679.35" y2="94.18"/><path id="パス_259-6" data-name="パス 259" class="cls-8" d="M679.35,136.05l874.32-3.34"/><circle class="cls-9" cx="679.85" cy="134.38" r="32.33"/><line class="cls-3" x1="1553.18" y1="94.18" x2="1553.18" y2="52.06"/><circle class="cls-4" cx="1553.67" cy="54.6" r="32.33"/><line class="cls-7" x1="1553.18" y1="136.31" x2="1553.18" y2="94.18"/><circle class="cls-9" cx="1553.67" cy="134.38" r="32.33"/><circle class="cls-9" cx="188.44" cy="330.02" r="32.33"/><path id="パス_259-7" data-name="パス 259" class="cls-10" d="M125.43,132.65l293.93-3.34"/><circle class="cls-11" cx="419.36" cy="131.85" r="32.33"/><circle class="cls-11" cx="100.57" cy="134.38" r="32.33"/><path id="パス_259-8" data-name="パス 259" class="cls-12" d="M1762,1235.72l798.06-3"/><circle class="cls-13" cx="2041.47" cy="1234.24" r="32.33"/><circle class="cls-13" cx="1762.04" cy="1231.7" r="32.33"/><line class="cls-14" x1="2360.76" y1="1191.11" x2="2360.76" y2="1233.24"/><path id="パス_259-9" data-name="パス 259" class="cls-15" d="M2360.27,1151.46l199.83.62"/><line class="cls-16" x1="2360.76" y1="1149.79" x2="2360.76" y2="1191.91"/><circle class="cls-17" cx="2360.76" cy="1151.71" r="32.33"/><circle class="cls-13" cx="2360.27" cy="1231.7" r="32.33"/><path id="パス_259-10" data-name="パス 259" class="cls-18" d="M353.1,1147l-150-156L.1,990"/><path id="パス_259-11" data-name="パス 259" class="cls-18" d="M647.19,1150.18l-293.93-3.33"/><circle class="cls-19" cx="672.05" cy="1151.92" r="32.33"/><circle class="cls-19" cx="353.26" cy="1149.38" r="32.33"/><path id="パス_259-12" data-name="パス 259" class="cls-20" d="M852.1,1232.5l-852-3.33"/><circle class="cls-21" cx="820.16" cy="1231.7" r="32.33"/><line class="cls-20" x1="500.87" y1="1189.58" x2="500.87" y2="1231.7"/><circle class="cls-21" cx="501.37" cy="1229.17" r="32.33"/><line class="cls-18" x1="500.87" y1="1147.46" x2="500.87" y2="1189.58"/><circle class="cls-19" cx="501.37" cy="1149.38" r="32.33"/><path id="パス_259-13" data-name="パス 259" class="cls-22" d="M.1,910l293.67.91"/><circle class="cls-23" cx="293.77" cy="910.45" r="32.33"/><circle class="cls-19" cx="95.45" cy="990" r="32.33"/></g></g></svg>